<svg width="24" height="24" viewBox="0 0 24 24" fill="none" xmlns="http://www.w3.org/2000/svg">
<path d="M14.2 2.87503C12.9734 2.87503 11.797 3.36231 10.9296 4.22966C10.0623 5.09702 9.575 6.2734 9.575 7.50003V10.075H7.1C6.97574 10.075 6.875 10.1758 6.875 10.3V13.7C6.875 13.8243 6.97574 13.925 7.1 13.925H9.575V20.9C9.575 21.0243 9.67574 21.125 9.8 21.125H13.2C13.3243 21.125 13.425 21.0243 13.425 20.9V13.925H15.9219C16.0252 13.925 16.1152 13.8548 16.1402 13.7546L16.9902 10.3546C17.0257 10.2126 16.9183 10.075 16.7719 10.075H13.425V7.50003C13.425 7.29449 13.5067 7.09736 13.652 6.95202C13.7973 6.80668 13.9945 6.72503 14.2 6.72503H16.8C16.9243 6.72503 17.025 6.62429 17.025 6.50003V3.10003C17.025 2.97577 16.9243 2.87503 16.8 2.87503H14.2Z" fill="white"/>
</svg>
