<svg width="24" height="24" viewBox="0 0 24 24" fill="none" xmlns="http://www.w3.org/2000/svg">
<path d="M12.0002 8.75008C10.2053 8.75008 8.75018 10.2052 8.75018 12.0001C8.75018 13.795 10.2053 15.2501 12.0002 15.2501C13.7951 15.2501 15.2502 13.795 15.2502 12.0001C15.2502 10.2052 13.7951 8.75008 12.0002 8.75008Z" fill="white"/>
<path fill-rule="evenodd" clip-rule="evenodd" d="M6.76972 3.08154C10.2178 2.69617 13.7825 2.69617 17.2307 3.08154C19.1291 3.29372 20.6603 4.7895 20.8831 6.69455C21.2954 10.2196 21.2954 13.7806 20.8831 17.3056C20.6603 19.2107 19.1291 20.7064 17.2307 20.9186C13.7825 21.304 10.2178 21.304 6.76972 20.9186C4.87132 20.7064 3.34013 19.2107 3.11732 17.3056C2.70504 13.7806 2.70504 10.2196 3.11732 6.69455C3.34013 4.7895 4.87132 3.29372 6.76972 3.08154ZM17.0002 6.00008C16.4479 6.00008 16.0002 6.44779 16.0002 7.00008C16.0002 7.55236 16.4479 8.00008 17.0002 8.00008C17.5525 8.00008 18.0002 7.55236 18.0002 7.00008C18.0002 6.44779 17.5525 6.00008 17.0002 6.00008ZM7.25018 12.0001C7.25018 9.37672 9.37683 7.25008 12.0002 7.25008C14.6235 7.25008 16.7502 9.37672 16.7502 12.0001C16.7502 14.6234 14.6235 16.7501 12.0002 16.7501C9.37683 16.7501 7.25018 14.6234 7.25018 12.0001Z" fill="white"/>
</svg>
