<svg width="24" height="24" viewBox="0 0 24 24" fill="none" xmlns="http://www.w3.org/2000/svg">
<path d="M4.74988 1.875C3.57627 1.875 2.62488 2.82639 2.62488 4C2.62488 5.1736 3.57627 6.125 4.74988 6.125C5.92348 6.125 6.87488 5.1736 6.87488 4C6.87488 2.82639 5.92348 1.875 4.74988 1.875Z" fill="white"/>
<path d="M2.74988 7.875C2.68084 7.875 2.62488 7.93096 2.62488 8V21C2.62488 21.069 2.68084 21.125 2.74988 21.125H6.74988C6.81891 21.125 6.87488 21.069 6.87488 21V8C6.87488 7.93096 6.81891 7.875 6.74988 7.875H2.74988Z" fill="white"/>
<path d="M9.24988 7.875C9.18084 7.875 9.12488 7.93096 9.12488 8V21C9.12488 21.069 9.18084 21.125 9.24988 21.125H13.2499C13.3189 21.125 13.3749 21.069 13.3749 21V14C13.3749 13.5027 13.5724 13.0258 13.9241 12.6742C14.2757 12.3225 14.7526 12.125 15.2499 12.125C15.7472 12.125 16.2241 12.3225 16.5757 12.6742C16.9273 13.0258 17.1249 13.5027 17.1249 14V21C17.1249 21.069 17.1808 21.125 17.2499 21.125H21.2499C21.3189 21.125 21.3749 21.069 21.3749 21V12.3802C21.3749 9.9535 19.2643 8.05499 16.8497 8.2745C16.1051 8.34219 15.3688 8.52731 14.6813 8.82194L13.3749 9.38186V8C13.3749 7.93096 13.3189 7.875 13.2499 7.875H9.24988Z" fill="white"/>
</svg>
