<svg width="24" height="24" viewBox="0 0 24 24" fill="none" xmlns="http://www.w3.org/2000/svg">
<path d="M4.74976 1.875C3.57615 1.875 2.62476 2.82639 2.62476 4C2.62476 5.17361 3.57615 6.125 4.74976 6.125C5.92336 6.125 6.87476 5.17361 6.87476 4C6.87476 2.82639 5.92336 1.875 4.74976 1.875Z" fill="#0D304A"/>
<path d="M2.74976 7.875C2.68072 7.875 2.62476 7.93097 2.62476 8V21C2.62476 21.069 2.68072 21.125 2.74976 21.125H6.74976C6.81879 21.125 6.87476 21.069 6.87476 21V8C6.87476 7.93097 6.81879 7.875 6.74976 7.875H2.74976Z" fill="#0D304A"/>
<path d="M9.24976 7.875C9.18072 7.875 9.12476 7.93097 9.12476 8V21C9.12476 21.069 9.18072 21.125 9.24976 21.125H13.2498C13.3188 21.125 13.3748 21.069 13.3748 21V14C13.3748 13.5027 13.5723 13.0258 13.9239 12.6742C14.2756 12.3225 14.7525 12.125 15.2498 12.125C15.747 12.125 16.224 12.3225 16.5756 12.6742C16.9272 13.0258 17.1248 13.5027 17.1248 14V21C17.1248 21.069 17.1807 21.125 17.2498 21.125H21.2498C21.3188 21.125 21.3748 21.069 21.3748 21V12.3803C21.3748 9.9535 19.2641 8.055 16.8496 8.2745C16.105 8.3422 15.3687 8.52731 14.6812 8.82195L13.3748 9.38186V8C13.3748 7.93097 13.3188 7.875 13.2498 7.875H9.24976Z" fill="#0D304A"/>
</svg>
